<?xml version="1.0" encoding="utf-8"?>
<!-- Generator: Adobe Illustrator 15.1.0, SVG Export Plug-In  -->
<!DOCTYPE svg PUBLIC "-//W3C//DTD SVG 1.1//EN" "http://www.w3.org/Graphics/SVG/1.1/DTD/svg11.dtd" [
	<!ENTITY ns_flows "http://ns.adobe.com/Flows/1.0/">
]>
<svg version="1.1"
	 xmlns="http://www.w3.org/2000/svg" xmlns:xlink="http://www.w3.org/1999/xlink" xmlns:a="http://ns.adobe.com/AdobeSVGViewerExtensions/3.0/"
	 x="0px" y="0px" width="142px" height="66px" viewBox="-0.534 -0.076 142 66" enable-background="new -0.534 -0.076 142 66"
	 xml:space="preserve">
<defs>
</defs>
<path fill="#FFFFFF" d="M66.421,3.653c-9.937,0-44.08,2.01-44.08,9.521c0,7.511,27.462,10.066,44.352,10.066
	c16.885,0,43.904-3.302,43.904-9.984C110.597,6.575,82.899,3.653,66.421,3.653 M66.421,21.68c-13.778,0-37.24-2.237-37.24-8.674
	c0-6.438,27.095-8.744,37.24-8.744c15.952,0,37.044,3.264,37.044,8.995C103.465,18.99,80.202,21.68,66.421,21.68"/>
<path fill="#FFFFFF" d="M66.463,11.085c-1.16,0-5.154,0.235-5.154,1.113c0,0.879,3.213,1.179,5.187,1.179
	c1.972,0,5.135-0.388,5.135-1.166C71.63,11.427,68.391,11.085,66.463,11.085"/>
<path fill="#FFFFFF" d="M43.394,12.386c0,2.146,6.046,3.58,6.697,3.219c0.792-0.406-2.095-0.55-2.095-3.021
	c-0.004-4.101,12.953-4.419,12.953-4.81C60.949,6.984,43.394,8.059,43.394,12.386"/>
<path fill="#FFFFFF" d="M90.101,12.703c0,4.129-18.361,5.087-18.361,4.572c0-0.477,13.096-1.406,13.096-4.692
	c0-2.427-3.321-3.049-3.321-3.473C81.514,8.589,90.101,9.677,90.101,12.703"/>
<path fill="#FFFFFF" d="M132.511,14.473c0,13.531-63.565,15.011-63.378,13.849c7.647-0.531,54.602-3.695,54.602-13.929
	c0.026-4.415-5.068-6.21-5.068-6.859C118.666,6.879,132.511,8.782,132.511,14.473"/>
<path fill="#FFFFFF" d="M0.224,14.739c0-13.302,66.111-15.757,66.111-14.415c0,0.736-57.334,0.557-57.334,14.496
	c-0.026,4.416,5.563,6.306,5.563,6.957C14.563,22.428,0.224,20.431,0.224,14.739"/>
<rect y="32.123" fill="#FFFFFF" width="3.84" height="26.426"/>
<path fill="#FFFFFF" d="M8.417,58.547V39.349h3.237v2.798c0.656-0.957,1.526-1.727,2.617-2.305c1.088-0.58,2.328-0.871,3.718-0.871
	c1.548,0,2.815,0.301,3.805,0.898c0.992,0.599,1.689,1.438,2.097,2.515c1.662-2.273,3.827-3.413,6.49-3.413
	c2.086,0,3.688,0.531,4.81,1.587c1.124,1.056,1.683,2.676,1.683,4.854v13.135H33.26v-12.02c0-1.297-0.113-2.23-0.345-2.797
	c-0.228-0.57-0.642-1.029-1.244-1.377c-0.601-0.346-1.308-0.521-2.118-0.521c-1.466,0-2.681,0.45-3.648,1.347
	s-1.453,2.325-1.453,4.291v11.076h-3.612V46.154c0-1.438-0.286-2.521-0.86-3.239c-0.572-0.72-1.51-1.081-2.811-1.081
	c-0.99,0-1.904,0.239-2.745,0.718c-0.838,0.478-1.448,1.18-1.824,2.102c-0.379,0.923-0.566,2.258-0.566,3.996v9.898H8.417z"/>
<path fill="#FFFFFF" d="M46.428,43.465c1.165-1.287,2.507-1.934,4.023-1.934c1.527,0,2.842,0.606,3.943,1.816
	c1.101,1.209,1.65,3.032,1.65,5.466c0,2.549-0.563,4.434-1.688,5.649c-1.131,1.217-2.485,1.824-4.064,1.824
	c-1.555,0-2.881-0.584-3.974-1.756c-1.095-1.171-1.641-2.985-1.641-5.443C44.678,46.628,45.26,44.754,46.428,43.465 M45.053,65.924
	v-9.375c0.608,0.708,1.382,1.295,2.325,1.756C48.322,58.766,49.386,59,50.573,59c1.618,0,3.167-0.419,4.64-1.253
	c1.469-0.834,2.592-2.036,3.361-3.604c0.771-1.572,1.159-3.337,1.159-5.294c0-1.826-0.35-3.504-1.048-5.035
	c-0.697-1.532-1.731-2.721-3.103-3.568c-1.372-0.848-2.954-1.271-4.744-1.271c-1.369,0-2.535,0.248-3.498,0.742
	c-0.961,0.495-1.824,1.231-2.589,2.21v-2.576H41.44v26.575H45.053z"/>
<path fill="#FFFFFF" d="M77.718,50.164c0,1.426-0.195,2.505-0.582,3.237c-0.506,0.941-1.302,1.686-2.389,2.226
	c-1.08,0.542-2.318,0.813-3.708,0.813c-1.404,0-2.473-0.285-3.205-0.854c-0.728-0.569-1.091-1.284-1.091-2.146
	c0-0.562,0.169-1.077,0.502-1.542c0.335-0.461,0.812-0.814,1.428-1.058c0.617-0.243,1.671-0.455,3.156-0.638
	c2.626-0.34,4.594-0.745,5.908-1.215L77.718,50.164z M78.64,58.547h3.69c-0.419-0.723-0.7-1.479-0.843-2.281
	c-0.141-0.799-0.211-2.703-0.211-5.717v-4.322c0-1.427-0.062-2.42-0.182-2.974c-0.211-0.899-0.585-1.642-1.117-2.229
	c-0.533-0.588-1.363-1.077-2.494-1.468c-1.133-0.391-2.602-0.586-4.412-0.586c-1.823,0-3.427,0.23-4.813,0.686
	c-1.388,0.457-2.444,1.104-3.179,1.941c-0.728,0.842-1.253,1.949-1.573,3.322l3.613,0.451c0.386-1.381,0.979-2.343,1.784-2.88
	c0.805-0.54,2.049-0.808,3.735-0.808c1.805,0,3.164,0.367,4.082,1.1c0.678,0.541,1.016,1.473,1.016,2.798
	c0,0.116-0.006,0.398-0.02,0.844c-1.377,0.423-3.521,0.79-6.435,1.104c-1.427,0.158-2.499,0.322-3.208,0.494
	c-0.962,0.235-1.827,0.592-2.596,1.065c-0.768,0.47-1.39,1.095-1.863,1.868c-0.474,0.775-0.712,1.631-0.712,2.563
	c0,1.604,0.628,2.918,1.884,3.94C66.044,58.486,67.839,59,70.183,59c1.414,0,2.739-0.218,3.979-0.65
	c1.234-0.434,2.502-1.17,3.805-2.212C78.063,57.054,78.288,57.858,78.64,58.547"/>
<path fill="#FFFFFF" d="M86.298,58.547V39.349h3.238v2.991c0.809-1.373,1.559-2.277,2.244-2.714
	c0.684-0.435,1.439-0.655,2.264-0.655c1.186,0,2.395,0.337,3.623,1.006l-1.25,2.992c-0.854-0.404-1.703-0.609-2.551-0.609
	c-0.768,0-1.449,0.216-2.056,0.641c-0.604,0.426-1.039,1.014-1.305,1.762c-0.396,1.152-0.593,2.418-0.593,3.794v9.991H86.298z"/>
<path fill="#FFFFFF" d="M109.978,55.567l0.451,2.91c-0.998,0.182-1.893,0.273-2.679,0.273c-1.286,0-2.286-0.184-2.994-0.551
	s-1.207-0.856-1.496-1.467c-0.29-0.609-0.434-1.889-0.434-3.832V41.887h-2.636v-2.561h2.636V34.6l3.612-1.952v6.679h3.539v2.561
	h-3.539v11.193c0,0.92,0.063,1.515,0.187,1.784c0.125,0.268,0.326,0.48,0.607,0.638c0.278,0.159,0.678,0.237,1.202,0.237
	C108.823,55.74,109.339,55.68,109.978,55.567"/>
<path fill="#FFFFFF" d="M128.634,50.164c0,1.426-0.195,2.505-0.582,3.237c-0.508,0.941-1.305,1.686-2.387,2.226
	c-1.083,0.542-2.32,0.813-3.71,0.813c-1.407,0-2.471-0.285-3.2-0.854c-0.729-0.569-1.094-1.284-1.094-2.146
	c0-0.562,0.168-1.077,0.504-1.542c0.333-0.461,0.812-0.814,1.425-1.058c0.618-0.243,1.669-0.455,3.156-0.638
	c2.625-0.34,4.593-0.745,5.907-1.215L128.634,50.164z M129.556,58.547h3.689c-0.419-0.723-0.7-1.479-0.842-2.281
	c-0.142-0.799-0.212-2.703-0.212-5.717v-4.322c0-1.427-0.06-2.42-0.181-2.974c-0.214-0.899-0.586-1.642-1.115-2.229
	c-0.535-0.588-1.365-1.077-2.496-1.468c-1.133-0.391-2.605-0.586-4.411-0.586c-1.823,0-3.429,0.23-4.812,0.686
	c-1.386,0.457-2.444,1.104-3.177,1.941c-0.731,0.842-1.256,1.949-1.573,3.322l3.612,0.451c0.384-1.381,0.978-2.343,1.78-2.88
	c0.805-0.54,2.049-0.808,3.734-0.808c1.804,0,3.168,0.367,4.082,1.1c0.68,0.541,1.018,1.473,1.018,2.798
	c0,0.116-0.006,0.398-0.02,0.844c-1.377,0.423-3.521,0.79-6.434,1.104c-1.431,0.158-2.497,0.322-3.205,0.494
	c-0.964,0.235-1.83,0.592-2.598,1.065c-0.767,0.47-1.389,1.095-1.861,1.868c-0.477,0.775-0.714,1.631-0.714,2.563
	c0,1.604,0.628,2.918,1.884,3.94c1.256,1.025,3.053,1.539,5.39,1.539c1.419,0,2.745-0.218,3.98-0.65
	c1.235-0.434,2.503-1.17,3.803-2.212C128.979,57.054,129.204,57.858,129.556,58.547"/>
<text transform="matrix(1 0 0 1 135.8545 33.9907)" fill="#FFFFFF" font-family="'Arial-BoldMT'" font-size="4.925">R</text>
<circle fill="none" stroke="#FFFFFF" stroke-miterlimit="10" cx="137.632" cy="32.076" r="3.301"/>
</svg>
